<?xml version="1.0" encoding="UTF-8"?>
<svg width="102px" height="106px" viewBox="0 0 102 106" version="1.1" xmlns="http://www.w3.org/2000/svg" xmlns:xlink="http://www.w3.org/1999/xlink">
    <!-- Generator: Sketch 50.2 (55047) - http://www.bohemiancoding.com/sketch -->
    <title>ciko-services-filmorder-illu</title>
    <desc>Created with Sketch.</desc>
    <defs>
        <path d="M13,0.40625 C6.04296875,0.40625 0.40625,6.04296875 0.40625,13 C0.40625,19.9570312 6.04296875,25.59375 13,25.59375 C19.9570312,25.59375 25.59375,19.9570312 25.59375,13 C25.59375,6.04296875 19.9570312,0.40625 13,0.40625 Z M18.8753906,14.21875 L9.93789062,19.3476562 C9.13554687,19.7945313 8.125,19.2207031 8.125,18.28125 L8.125,7.71875 C8.125,6.784375 9.13046875,6.20546875 9.93789062,6.65234375 L18.8753906,12.0859375 C19.7082031,12.553125 19.7082031,13.7566406 18.8753906,14.21875 Z" id="path-1"></path>
    </defs>
    <g id="ciko-services-filmorder-illu" stroke="none" stroke-width="1" fill="none" fill-rule="evenodd">
        <g id="Group" fill="#35383C">
            <g id="Group-9">
                <polygon id="Fill-4" points="10.7983871 76.5184187 91.2048387 76.5184187 91.2048387 30.4746687 10.7983871 30.4746687"></polygon>
                <g id="Group-8">
                    <path d="M94.5277516,78.1743375 C94.5277516,79.1697438 93.8632355,79.8305875 92.8664613,79.8305875 L9.13742903,79.8305875 C8.14065484,79.8305875 7.47613871,79.1697438 7.47613871,78.1743375 L7.47613871,28.8180875 C7.47613871,27.8259938 8.14065484,27.1618375 9.13742903,27.1618375 L92.8664613,27.1618375 C93.8632355,27.1618375 94.5277516,27.8259938 94.5277516,28.8180875 L94.5277516,78.1743375 Z M74.0938806,90.5962125 L84.5600097,90.5962125 L84.5600097,86.7868375 L74.0938806,86.7868375 L74.0938806,90.5962125 Z M31.3987194,90.5962125 L70.605171,90.5962125 L70.605171,86.7868375 L31.3987194,86.7868375 L31.3987194,90.5962125 Z M17.6100097,90.5962125 L28.0761387,90.5962125 L28.0761387,86.7868375 L17.6100097,86.7868375 L17.6100097,90.5962125 Z M96.687429,20.2055875 L92.2019452,20.2055875 L92.2019452,8.2805875 C92.2019452,3.81036875 88.5454452,-0.0006625 83.8954935,-0.0006625 L82.730929,-0.0006625 C78.7454935,-0.0006625 75.2551226,2.98224375 74.5922677,6.7899625 L69.6083968,6.7899625 C68.6099613,6.7899625 67.9471065,7.4524625 67.9471065,8.4462125 C67.9471065,12.9197438 71.6019452,16.5618375 76.0857677,16.5618375 C80.5729129,16.5618375 84.2277516,12.9197438 84.2277516,8.4462125 C84.2277516,7.4524625 83.5615742,6.7899625 82.5664613,6.7899625 L77.9148484,6.7899625 C78.7454935,4.8024625 80.5729129,3.3118375 82.730929,3.3118375 L83.8954935,3.3118375 C86.5535581,3.3118375 88.8793645,5.46661875 88.8793645,8.2805875 L88.8793645,20.2055875 L63.2954935,20.2055875 L63.2954935,8.2805875 C63.2954935,3.81036875 59.6406548,-0.0006625 55.155171,-0.0006625 L53.9922677,-0.0006625 C50.005171,-0.0006625 46.5164613,2.98224375 45.8519452,6.7899625 L40.8680742,6.7899625 C39.8713,6.7899625 39.2067839,7.4524625 39.2067839,8.4462125 C39.2067839,12.9197438 42.8616226,16.5618375 47.3471065,16.5618375 C51.8325903,16.5618375 55.487429,12.9197438 55.487429,8.4462125 C55.487429,7.4524625 54.6567839,6.7899625 53.8261387,6.7899625 L49.1745258,6.7899625 C49.8390419,4.8024625 51.6664613,3.3118375 53.8261387,3.3118375 L54.9890419,3.3118375 C57.6471065,3.3118375 59.8067839,5.46661875 59.8067839,8.2805875 L59.8067839,20.2055875 L34.3890419,20.2055875 L34.3890419,8.2805875 C34.3890419,3.81036875 30.7342032,-0.0006625 26.0825903,-0.0006625 L24.9196871,-0.0006625 C20.7664613,-0.0006625 17.4438806,2.98224375 16.7793645,6.7899625 L11.7954935,6.7899625 C10.7987194,6.7899625 10.1342032,7.4524625 10.1342032,8.4462125 C10.1342032,12.9197438 13.7890419,16.5618375 18.2745258,16.5618375 C22.7600097,16.5618375 26.4148484,12.9197438 26.4148484,8.4462125 C26.4148484,7.4524625 25.5842032,6.7899625 24.7535581,6.7899625 L20.1019452,6.7899625 C20.7664613,4.8024625 22.7600097,3.3118375 24.9196871,3.3118375 L26.0825903,3.3118375 C28.7406548,3.3118375 31.0664613,5.46661875 31.0664613,8.2805875 L31.0664613,20.2055875 L5.31646129,20.2055875 C2.32613871,20.2055875 0.000332258065,22.6899625 0.000332258065,25.5055875 L0.000332258065,81.6541188 C0.000332258065,84.6337125 2.49226774,86.9541188 5.31646129,86.9541188 L14.1213,86.9541188 L14.1213,90.7634938 L8.80517097,90.7634938 C7.97452581,90.7634938 7.14388065,91.4243375 7.14388065,92.4197438 C7.14388065,93.4118375 7.97452581,94.0759938 8.80517097,94.0759938 L14.1213,94.0759938 L14.1213,104.344744 C14.1213,105.336838 14.9519452,106.000994 15.7825903,106.000994 C16.7793645,106.000994 17.4438806,105.336838 17.4438806,104.344744 L17.4438806,93.9087125 L27.9100097,93.9087125 L27.9100097,104.344744 C27.9100097,105.336838 28.5745258,106.000994 29.5713,106.000994 C30.4019452,106.000994 31.2325903,105.336838 31.2325903,104.344744 L31.2325903,93.9087125 L70.4390419,93.9087125 L70.4390419,104.344744 C70.4390419,105.336838 71.2696871,106.000994 72.1003323,106.000994 C73.0971065,106.000994 73.7616226,105.336838 73.7616226,104.344744 L73.7616226,93.9087125 L84.2277516,93.9087125 L84.2277516,104.344744 C84.2277516,105.336838 84.8922677,106.000994 85.8890419,106.000994 C86.7196871,106.000994 87.5503323,105.336838 87.5503323,104.344744 L87.5503323,93.9087125 L92.8664613,93.9087125 C93.8632355,93.9087125 94.5277516,93.2478688 94.5277516,92.2524625 C94.5277516,91.2587125 93.8632355,90.5962125 92.8664613,90.5962125 L87.5503323,90.5962125 L87.5503323,86.7868375 L96.355171,86.7868375 C99.3438323,86.7868375 101.6713,84.4697438 101.6713,81.4868375 L101.6713,25.5055875 C102.003558,22.5243375 99.6777516,20.2055875 96.687429,20.2055875 Z" id="Fill-6"></path>
                </g>
            </g>
        </g>
        <g id="Solid/play-circle" transform="translate(38.000000, 40.000000)">
            <mask id="mask-2" fill="white">
                <use xlink:href="#path-1"></use>
            </mask>
            <use id="Mask" fill="#000000" fill-rule="nonzero" xlink:href="#path-1"></use>
            <g id="Color/white" mask="url(#mask-2)" fill="#FFFFFF" fill-rule="evenodd">
                <rect id="Purple" x="0" y="0" width="26" height="26"></rect>
            </g>
        </g>
    </g>
</svg>