<?xml version="1.0" encoding="UTF-8"?>
<svg width="534px" height="239px" viewBox="0 0 534 239" version="1.1" xmlns="http://www.w3.org/2000/svg" xmlns:xlink="http://www.w3.org/1999/xlink">
    <!-- Generator: Sketch 50.2 (55047) - http://www.bohemiancoding.com/sketch -->
    <title>cirko-services-vod-illu</title>
    <desc>Created with Sketch.</desc>
    <defs>
        <polygon id="path-1" points="0 0.00238333333 213 0.00238333333 213 11.9166667 0 11.9166667"></polygon>
        <path d="M16,0.5 C7.4375,0.5 0.5,7.4375 0.5,16 C0.5,24.5625 7.4375,31.5 16,31.5 C24.5625,31.5 31.5,24.5625 31.5,16 C31.5,7.4375 24.5625,0.5 16,0.5 Z M23.23125,17.5 L12.23125,23.8125 C11.24375,24.3625 10,23.65625 10,22.5 L10,9.5 C10,8.35 11.2375,7.6375 12.23125,8.1875 L23.23125,14.875 C24.25625,15.45 24.25625,16.93125 23.23125,17.5 Z" id="path-3"></path>
        <path d="M16,0.5 C7.4375,0.5 0.5,7.4375 0.5,16 C0.5,24.5625 7.4375,31.5 16,31.5 C24.5625,31.5 31.5,24.5625 31.5,16 C31.5,7.4375 24.5625,0.5 16,0.5 Z M23.23125,17.5 L12.23125,23.8125 C11.24375,24.3625 10,23.65625 10,22.5 L10,9.5 C10,8.35 11.2375,7.6375 12.23125,8.1875 L23.23125,14.875 C24.25625,15.45 24.25625,16.93125 23.23125,17.5 Z" id="path-5"></path>
        <path d="M16,0.5 C7.4375,0.5 0.5,7.4375 0.5,16 C0.5,24.5625 7.4375,31.5 16,31.5 C24.5625,31.5 31.5,24.5625 31.5,16 C31.5,7.4375 24.5625,0.5 16,0.5 Z M23.23125,17.5 L12.23125,23.8125 C11.24375,24.3625 10,23.65625 10,22.5 L10,9.5 C10,8.35 11.2375,7.6375 12.23125,8.1875 L23.23125,14.875 C24.25625,15.45 24.25625,16.93125 23.23125,17.5 Z" id="path-7"></path>
        <path d="M16,0.5 C7.4375,0.5 0.5,7.4375 0.5,16 C0.5,24.5625 7.4375,31.5 16,31.5 C24.5625,31.5 31.5,24.5625 31.5,16 C31.5,7.4375 24.5625,0.5 16,0.5 Z M23.23125,17.5 L12.23125,23.8125 C11.24375,24.3625 10,23.65625 10,22.5 L10,9.5 C10,8.35 11.2375,7.6375 12.23125,8.1875 L23.23125,14.875 C24.25625,15.45 24.25625,16.93125 23.23125,17.5 Z" id="path-9"></path>
    </defs>
    <g id="cirko-services-vod-illu" stroke="none" stroke-width="1" fill="none" fill-rule="evenodd">
        <g id="Group-8">
            <g id="Group-5">
                <g id="Group-3" transform="translate(244.000000, 224.000000)">
                    <mask id="mask-2" fill="white">
                        <use xlink:href="#path-1"></use>
                    </mask>
                    <g id="Clip-2"></g>
                </g>
                <path d="M244,229.960717 C244,233.535717 246.366667,235.91905 249.916667,235.91905 L457,235.91905 L457,224.002383 L249.916667,224.002383 C246.366667,224.002383 244,226.379758 244,229.960717" id="Fill-1" fill="#35383C"></path>
                <path d="M110.430984,88.0338869 L6.35203684,88.0338869 C3.37835263,88.0338869 0.999405263,90.4173352 0.999405263,92.8007834 L0.999405263,232.232508 C0.999405263,234.615956 3.37835263,236.999404 6.35203684,236.999404 L108.646774,236.999404 C111.620458,236.999404 113.999405,234.615956 113.999405,232.232508 L113.999405,91.6090593 C113.999405,89.225611 112.215195,88.0338869 110.430984,88.0338869" id="Fill-4" fill="#35383C"></path>
                <path d="M198.813953,189.578127 L254.930233,189.578127 L254.930233,59.2447939 C254.930233,55.6843242 257.293023,53.3205515 260.837209,53.3205515 L314,53.3205515 L314,11.8508545 C314,5.32826364 308.683721,0.00236969697 302.186047,0.00236969697 L71.8139535,0.00236969697 C65.3162791,0.00236969697 60,5.32826364 60,11.8508545 L60,82.9417636 L113.162791,82.9417636 C116.706977,82.9417636 119.069767,85.3055364 119.069767,88.8660061 L119.069767,189.578127 L187,189.578127 L187,225.123582 L148.604651,225.123582 C145.060465,225.123582 142.697674,227.487355 142.697674,231.047824 C142.697674,234.60237 145.060465,236.972067 148.604651,236.972067 L187,236.972067 L198.813953,236.972067 L237.209302,236.972067 L237.209302,225.123582 L198.813953,225.123582 L198.813953,189.578127 Z" id="Fill-7" fill="#35383C"></path>
                <path d="M456.110769,118.948889 C456.110769,114.979778 458.829487,112.329778 462.904615,112.329778 L491,112.329778 L491,85.9464444 L491,65.8888889 C491,62.3555556 488.641026,60 485.102564,60 L266.897436,60 C263.358974,60 261,62.3555556 261,65.8888889 L261,213.111111 C261,216.644444 263.358974,219 266.897436,219 L423.574615,219 L455.615385,219 L456.110769,118.948889 Z" id="Fill-10" fill="#35383C"></path>
                <path d="M528.083333,119 L468.916667,119 C465.366667,119 463,121.38 463,124.95 L463,232.05 C463,235.62 465.366667,238 468.916667,238 L528.083333,238 C531.633333,238 534,235.62 534,232.05 L534,124.95 C534,121.38 531.633333,119 528.083333,119" id="Fill-12" fill="#35383C"></path>
            </g>
            <g id="Solid/play-circle" transform="translate(483.000000, 161.000000)">
                <mask id="mask-4" fill="white">
                    <use xlink:href="#path-3"></use>
                </mask>
                <use id="Mask" fill="#000000" fill-rule="nonzero" xlink:href="#path-3"></use>
                <g id="Color/white" mask="url(#mask-4)" fill="#FFFFFF" fill-rule="evenodd">
                    <rect id="Purple" x="0" y="0" width="32" height="32"></rect>
                </g>
            </g>
            <g id="Solid/play-circle" transform="translate(362.000000, 123.000000)">
                <mask id="mask-6" fill="white">
                    <use xlink:href="#path-5"></use>
                </mask>
                <use id="Mask" fill="#000000" fill-rule="nonzero" xlink:href="#path-5"></use>
                <g id="Color/white" mask="url(#mask-6)" fill="#FFFFFF" fill-rule="evenodd">
                    <rect id="Purple" x="0" y="0" width="32" height="32"></rect>
                </g>
            </g>
            <g id="Solid/play-circle" transform="translate(177.000000, 77.000000)">
                <mask id="mask-8" fill="white">
                    <use xlink:href="#path-7"></use>
                </mask>
                <use id="Mask" fill="#000000" fill-rule="nonzero" xlink:href="#path-7"></use>
                <g id="Color/white" mask="url(#mask-8)" fill="#FFFFFF" fill-rule="evenodd">
                    <rect id="Purple" x="0" y="0" width="32" height="32"></rect>
                </g>
            </g>
            <g id="Solid/play-circle" transform="translate(46.000000, 144.000000)">
                <mask id="mask-10" fill="white">
                    <use xlink:href="#path-9"></use>
                </mask>
                <use id="Mask" fill="#000000" fill-rule="nonzero" xlink:href="#path-9"></use>
                <g id="Color/white" mask="url(#mask-10)" fill="#FFFFFF" fill-rule="evenodd">
                    <rect id="Purple" x="0" y="0" width="32" height="32"></rect>
                </g>
            </g>
        </g>
    </g>
</svg>