<?xml version="1.0" encoding="UTF-8"?>
<svg width="102px" height="106px" viewBox="0 0 102 106" version="1.1" xmlns="http://www.w3.org/2000/svg" xmlns:xlink="http://www.w3.org/1999/xlink">
    <!-- Generator: Sketch 50.2 (55047) - http://www.bohemiancoding.com/sketch -->
    <title>cirko-services-media-illu</title>
    <desc>Created with Sketch.</desc>
    <defs></defs>
    <g id="cirko-services-media-illu" stroke="none" stroke-width="1" fill="none" fill-rule="evenodd">
        <g id="Group-9" transform="translate(0.000000, 10.000000)">
            <g id="Group-8" fill="#35383C">
                <path d="M0.401678296,21.8640159 C0.00704698764,22.4119284 -0.0968033566,23.1073559 0.090127263,23.7606362 L16,74 L16,21 L2.0632838,21 C1.41941167,21 0.775539535,21.3161034 0.401678296,21.8640159" id="Fill-1"></path>
                <path d="M88.6092975,58.1357664 L35.3214939,58.1357664 C34.1580047,58.1357664 33.206059,57.2064964 33.206059,56.0189781 C33.206059,54.8547445 34.1580047,53.9021898 35.3214939,53.9021898 L88.6092975,53.9021898 C89.7727866,53.9021898 90.7247323,54.8547445 90.7247323,56.0189781 C90.7247323,57.2064964 89.7727866,58.1357664 88.6092975,58.1357664 M88.6092975,67.7751095 L35.3214939,67.7751095 C34.1580047,67.7751095 33.206059,66.8416058 33.206059,65.6583212 C33.206059,64.4919708 34.1580047,63.5415328 35.3214939,63.5415328 L88.6092975,63.5415328 C89.7727866,63.5415328 90.7247323,64.4919708 90.7247323,65.6583212 C90.7247323,66.8416058 89.7727866,67.7751095 88.6092975,67.7751095 M88.6092975,77.410219 L35.3214939,77.410219 C34.1580047,77.410219 33.206059,76.4788321 33.206059,75.2934307 C33.206059,74.1313139 34.1580047,73.1766423 35.3214939,73.1766423 L88.6092975,73.1766423 C89.7727866,73.1766423 90.7247323,74.1313139 90.7247323,75.2934307 C90.7247323,76.4788321 89.7727866,77.410219 88.6092975,77.410219 M26,0 L97,0 C99.7614237,-5.07265313e-16 102,2.23857625 102,5 L102,82 C102,84.7614237 99.7614237,87 97,87 L26,87 C23.2385763,87 21,84.7614237 21,82 L21,5 C21,2.23857625 23.2385763,5.07265313e-16 26,0 Z" id="Fill-3"></path>
            </g>
            <path d="M46.0351759,26.75 L50.241206,32.15 L56.9396985,23 L68,38 L37,38 L46.0351759,26.75 Z M43.0059905,15 C44.7393644,15 46,16.4210526 46,18 C46,19.7368421 44.581785,21 43.0059905,21 C41.2726166,21 40.011981,19.5789474 40.011981,18 C39.8544015,16.4210526 41.2726166,15 43.0059905,15 Z M37.0833333,45 L67.7625,45 C68.8416667,45 71,44.075 71,41.7625 L71,10.775 C71,8.77083333 69.15,8 68.225,8 L36.6208333,8 C35.6958333,8 34,8.61666667 34,10.4666667 L34,41.6083333 C34,44.075 35.85,45 37.0833333,45 Z" id="Fill-1" fill="#FFFFFF"></path>
        </g>
    </g>
</svg>