<?xml version="1.0" encoding="UTF-8"?>
<svg width="128px" height="64px" viewBox="0 0 128 64" version="1.1" xmlns="http://www.w3.org/2000/svg" xmlns:xlink="http://www.w3.org/1999/xlink">
    <!-- Generator: Sketch 50.2 (55047) - http://www.bohemiancoding.com/sketch -->
    <title>cirko-film-brand-white</title>
    <desc>Created with Sketch.</desc>
    <defs></defs>
    <g id="cirko-film-brand-white" stroke="none" stroke-width="1" fill="none" fill-rule="evenodd">
        <g id="Group" transform="translate(3.000000, 1.000000)" fill="#FFFFFF">
            <g id="Group-2" transform="translate(10.000000, 0.000000)">
                <path d="M6.40085498,7.11407944 C6.87195887,6.24925167 7.49284632,5.64000211 8.34003247,5.19970861 C9.15280303,4.77774728 10.3526948,4.52056098 11.9432792,4.5228123 C12.6460931,4.5228123 13.4089719,4.56162074 14.2293182,4.64030967 C15.0692532,4.7209283 15.8530195,4.80937293 16.5808333,4.90564359 C17.4242316,5.01767346 18.2599459,5.14696344 19.0873268,5.29147663 L20.2688203,5.49752583 L20.5546429,1.07025518 L19.6246645,0.893580316 C18.835487,0.744135677 18.0151407,0.603481898 17.1620022,0.470761336 C16.3942532,0.352620738 15.5494481,0.247880844 14.6259632,0.15611283 C13.680184,0.0628439367 12.7118939,0.0158878735 11.720119,0.0158878735 C9.49652597,0.0171743409 7.61059524,0.355622496 6.0690368,1.10702671 C4.55983766,1.84235009 3.34079004,2.94731845 2.49003247,4.36018137 C1.64988095,5.75128155 1.10247835,7.41296872 0.814058442,9.32519543 C0.531699134,11.1977561 0.393820346,13.3048826 0.393495671,15.6520425 C0.393820346,17.9853729 0.535162338,20.0737385 0.82737013,21.925394 C1.12477273,23.8124274 1.67737013,25.4535311 2.51752165,26.8265135 C3.36968615,28.2236172 4.58667749,29.3118615 6.08851732,30.0290671 C7.62130952,30.7626752 9.49955628,31.0902956 11.720119,31.0917965 C12.5694697,31.0917965 13.4594048,31.0443044 14.3913312,30.9515715 C15.307132,30.8601251 16.1535606,30.7555996 16.9332143,30.6386383 L16.9178463,30.6408896 L16.9304004,30.6391743 C17.8367857,30.5059178 18.7266126,30.3565803 19.600855,30.1899828 L20.5208766,30.0145944 L20.4700108,29.0882306 L20.2809416,25.6442499 L19.0977165,25.8394714 C18.2240152,25.9839845 17.3594048,26.1040548 16.5035606,26.1997895 C15.7719589,26.2806225 14.9874351,26.3571673 14.1520455,26.430496 C13.3351623,26.5016805 12.6052922,26.5369511 11.9677381,26.5364151 C10.3746645,26.5386664 9.16882035,26.2885557 8.35291126,25.8777438 C7.50464286,25.4506366 6.88873377,24.8602552 6.42066017,24.0222288 C5.94014069,23.1559002 5.59371212,22.0396752 5.41708874,20.6582236 C5.23472944,19.2351761 5.14068182,17.5646981 5.14100649,15.6520425 C5.14068182,13.7223413 5.23018398,12.0239898 5.40604978,10.5644924 C5.57488095,9.14969982 5.91892857,8.0036717 6.40085498,7.11407944" id="Fill-5"></path>
                <polygon id="Fill-7" points="28.6993506 0.432939192 24.0757576 0.432939192 24.0757576 1.49652619 24.0757576 30.6616018 28.6993506 30.6616018"></polygon>
                <path d="M38.0164827,4.91478822 L44.8188636,4.91478822 C45.8029545,4.91478822 46.6226515,5.02692531 47.2729762,5.22643497 C47.9252489,5.42690949 48.4043615,5.70585852 48.7658333,6.05138225 C49.1224351,6.39368981 49.4079329,6.84813445 49.6145346,7.4762522 C49.820487,8.10254745 49.9372619,8.89876362 49.9365043,9.86211336 C49.9372619,10.7521344 49.8413745,11.5423471 49.661829,12.234681 C49.4886688,12.8943172 49.2191883,13.4109411 48.8563095,13.8339745 C48.505119,14.239855 48.0355303,14.567797 47.3803355,14.8191942 C46.754145,15.0596564 45.8990584,15.2032047 44.8188636,15.2021327 L38.0164827,15.2021387 L38.0164827,4.91478822 Z M55.6973268,30.6616125 L49.672868,18.6759165 C50.2503571,18.4471397 50.78921,18.1769815 51.2740584,17.8500044 C52.0898593,17.3010044 52.7649675,16.6052399 53.2654004,15.7869394 C54.241158,14.1921485 54.6843398,12.200268 54.6847727,9.86211336 C54.6840152,8.30377241 54.4928896,6.9216775 54.0795779,5.71464938 C53.6675649,4.50912214 53.0213528,3.47641037 52.1413745,2.68448243 C51.2775216,1.90563357 50.2091234,1.3381942 48.9831494,0.9721942 C47.7560931,0.605550967 46.3686472,0.433378735 44.8188636,0.432949912 L33.3925649,0.432949912 L33.3925649,30.6616125 L38.0164827,30.6616125 L38.0164827,19.6842926 L44.7694048,19.6842926 L44.9236255,19.6842926 L50.4766558,30.6616125 L50.5302273,30.6616125 L50.5302273,30.6997777 L54.0882359,30.6997777 L54.0882359,30.6616125 L55.6973268,30.6616125 Z" id="Fill-9"></path>
                <polygon id="Fill-11" points="80.3382684 30.6616232 70.5569913 15.560103 79.7358874 0.432960633 74.3062338 0.432960633 66.4244156 13.5182647 63.2835065 13.5668288 63.2838312 0.432960633 58.6353463 0.432960633 58.6353463 30.6616232 58.7368615 30.6616232 58.7368615 30.6750239 63.2838312 30.6750239 63.2838312 18.0732172 66.5351299 18.0245459 74.7769048 30.6750239 75.2164069 30.6750239 75.2164069 30.6616232"></polygon>
                <path d="M92.0999242,4.54659051 C93.7054437,4.54573286 94.9497078,4.80324077 95.8449459,5.24578559 C96.7670238,5.70248155 97.4564177,6.33606678 97.9876948,7.21601054 C98.5296861,8.1186819 98.9276299,9.26717575 99.15079,10.6774657 C99.3789286,12.1210967 99.4970022,13.7982214 99.4962446,15.7012285 C99.4970022,17.7074745 99.3869372,19.4299473 99.1734091,20.8577118 C98.9669156,22.2483831 98.5818506,23.3440246 98.0619372,24.1658629 C97.5501407,24.971942 96.8802273,25.5463497 95.9615043,25.9533023 C95.0603139,26.3518928 93.768539,26.5874236 92.0999242,26.5857083 C90.4524134,26.5874236 89.1783874,26.3417083 88.2806602,25.9246784 C87.3593398,25.4954271 86.6889935,24.9024728 86.1822835,24.0802056 C85.6645346,23.2367118 85.2826082,22.1279912 85.07579,20.7347469 C84.8622619,19.3047311 84.752197,17.6240685 84.7528463,15.7012285 C84.752197,13.7796749 84.8657251,12.0926872 85.0872619,10.6475554 C85.3024134,9.23683656 85.6927814,8.0940246 86.2258983,7.20100176 C86.7486255,6.33092091 87.4304437,5.70076626 88.3447294,5.24460633 C89.2275216,4.80463445 90.4761147,4.54519684 92.0999242,4.54659051 M82.4105303,26.9877293 C83.3552273,28.3547083 84.6613961,29.4015712 86.2471104,30.0835062 C87.8547944,30.7761617 89.8044697,31.0909174 92.0999242,31.091775 C94.3914827,31.0909174 96.3379113,30.7889192 97.9485173,30.1275677 C99.5432143,29.4726485 100.86237,28.4481916 101.819513,27.095471 C102.771245,25.7546503 103.404578,24.1105448 103.755985,22.1963884 C104.101439,20.3155729 104.268539,18.1539859 104.268864,15.7012285 C104.268539,13.3275888 104.09592,11.1965554 103.743106,9.30137434 C103.384123,7.37467487 102.747976,5.70248155 101.808041,4.31416872 C100.85934,2.90870299 99.5495996,1.82356766 97.9571753,1.1057188 C96.3386688,0.375326889 94.3847727,0.0417029877 92.0999242,0.0405237258 C89.8138853,0.0417029877 87.8611797,0.379829525 86.247868,1.12072759 C84.6631277,1.84801054 83.3615043,2.94247276 82.4147511,4.35362039 C81.4752489,5.74900879 80.8431061,7.42205975 80.4924567,9.34179086 C80.1477597,11.2272162 79.9807684,13.3450633 79.9804437,15.7012285 C79.9807684,18.089877 80.1477597,20.2153357 80.4932143,22.0871459 C80.8438636,23.9904745 81.4725433,25.635116 82.4105303,26.9877293" id="Fill-13"></path>
            </g>
            <polygon id="Fill-15" points="38.6993506 30.6616232 34.0757576 30.6616232 34.0747835 30.6616232 34.0747835 31.725103 34.0747835 60.9032576 38.6987013 60.9032576 38.6987013 49.05382 50.7603896 49.05382 50.7603896 44.5718745 38.6987013 44.5718745 38.6987013 35.119233 53.2117965 35.119233 53.2117965 30.6616232 48.0164502 30.6616232 43.3925325 30.6616232"></polygon>
            <polygon id="Fill-17" points="60.4766991 30.6616232 55.9063528 30.6616232 55.9063528 31.725103 55.9063528 60.9032576 60.5302706 60.9032576 60.5302706 30.6996812 60.5302706 30.6616232"></polygon>
            <polygon id="Fill-19" points="68.6353247 30.6616232 65.6973377 30.6616232 64.0882468 30.6616232 64.0882468 30.6996812 64.0882468 60.9032576 65.1617316 60.9032576 81.6896537 60.9032576 81.6896537 56.3971909 68.7368398 56.3971909 68.7368398 30.6750239 68.7368398 30.6616232"></polygon>
            <polygon id="Fill-21" points="114.260563 60.9032898 114.260563 30.6616554 107.901039 30.6616554 99.7401082 53.0715974 91.602013 30.6616554 90.3382684 30.6616554 85.2164069 30.6616554 85.2164069 30.6750561 85.2164069 31.7251351 85.2164069 60.9032898 89.8403247 60.9032898 89.8403247 39.0176905 97.4735498 59.996223 101.902121 59.996223 109.611861 38.9833847 109.611861 60.9032898"></polygon>
            <polygon id="Fill-23" points="120.394264 60.9033005 124.937446 60.9033005 124.937446 0 120.394264 0"></polygon>
            <polygon id="Fill-25" points="0 60.9033005 4.54318182 60.9033005 4.54318182 0 0 0"></polygon>
        </g>
    </g>
</svg>