<?xml version="1.0" encoding="UTF-8"?>
<svg width="128px" height="64px" viewBox="0 0 128 64" version="1.1" xmlns="http://www.w3.org/2000/svg" xmlns:xlink="http://www.w3.org/1999/xlink">
    <!-- Generator: Sketch 50.2 (55047) - http://www.bohemiancoding.com/sketch -->
    <title>cirko-film-brand</title>
    <desc>Created with Sketch.</desc>
    <defs></defs>
    <g id="cirko-film-brand" stroke="none" stroke-width="1" fill="none" fill-rule="evenodd">
        <g id="Group" transform="translate(3.000000, 1.000000)">
            <path d="M16.400855,7.11407944 C16.8719589,6.24925167 17.4928463,5.64000211 18.3400325,5.19970861 C19.152803,4.77774728 20.3526948,4.52056098 21.9432792,4.5228123 C22.6460931,4.5228123 23.4089719,4.56162074 24.2293182,4.64030967 C25.0692532,4.7209283 25.8530195,4.80937293 26.5808333,4.90564359 C27.4242316,5.01767346 28.2599459,5.14696344 29.0873268,5.29147663 L30.2688203,5.49752583 L30.5546429,1.07025518 L29.6246645,0.893580316 C28.835487,0.744135677 28.0151407,0.603481898 27.1620022,0.470761336 C26.3942532,0.352620738 25.5494481,0.247880844 24.6259632,0.15611283 C23.680184,0.0628439367 22.7118939,0.0158878735 21.720119,0.0158878735 C19.496526,0.0171743409 17.6105952,0.355622496 16.0690368,1.10702671 C14.5598377,1.84235009 13.34079,2.94731845 12.4900325,4.36018137 C11.649881,5.75128155 11.1024784,7.41296872 10.8140584,9.32519543 C10.5316991,11.1977561 10.3938203,13.3048826 10.3934957,15.6520425 C10.3938203,17.9853729 10.5351623,20.0737385 10.8273701,21.925394 C11.1247727,23.8124274 11.6773701,25.4535311 12.5175216,26.8265135 C13.3696861,28.2236172 14.5866775,29.3118615 16.0885173,30.0290671 C17.6213095,30.7626752 19.4995563,31.0902956 21.720119,31.0917965 C22.5694697,31.0917965 23.4594048,31.0443044 24.3913312,30.9515715 C25.307132,30.8601251 26.1535606,30.7555996 26.9332143,30.6386383 L26.9178463,30.6408896 L26.9304004,30.6391743 C27.8367857,30.5059178 28.7266126,30.3565803 29.600855,30.1899828 L30.5208766,30.0145944 L30.4700108,29.0882306 L30.2809416,25.6442499 L29.0977165,25.8394714 C28.2240152,25.9839845 27.3594048,26.1040548 26.5035606,26.1997895 C25.7719589,26.2806225 24.9874351,26.3571673 24.1520455,26.430496 C23.3351623,26.5016805 22.6052922,26.5369511 21.9677381,26.5364151 C20.3746645,26.5386664 19.1688203,26.2885557 18.3529113,25.8777438 C17.5046429,25.4506366 16.8887338,24.8602552 16.4206602,24.0222288 C15.9401407,23.1559002 15.5937121,22.0396752 15.4170887,20.6582236 C15.2347294,19.2351761 15.1406818,17.5646981 15.1410065,15.6520425 C15.1406818,13.7223413 15.230184,12.0239898 15.4060498,10.5644924 C15.574881,9.14969982 15.9189286,8.0036717 16.400855,7.11407944" id="Fill-5" fill="#D0021B"></path>
            <polygon id="Fill-7" fill="#D0021B" points="38.6993506 0.432939192 34.0757576 0.432939192 34.0757576 1.49652619 34.0757576 30.6616018 38.6993506 30.6616018"></polygon>
            <path d="M48.0164827,4.91478822 L54.8188636,4.91478822 C55.8029545,4.91478822 56.6226515,5.02692531 57.2729762,5.22643497 C57.9252489,5.42690949 58.4043615,5.70585852 58.7658333,6.05138225 C59.1224351,6.39368981 59.4079329,6.84813445 59.6145346,7.4762522 C59.820487,8.10254745 59.9372619,8.89876362 59.9365043,9.86211336 C59.9372619,10.7521344 59.8413745,11.5423471 59.661829,12.234681 C59.4886688,12.8943172 59.2191883,13.4109411 58.8563095,13.8339745 C58.505119,14.239855 58.0355303,14.567797 57.3803355,14.8191942 C56.754145,15.0596564 55.8990584,15.2032047 54.8188636,15.2021327 L48.0164827,15.2021387 L48.0164827,4.91478822 Z M65.6973268,30.6616125 L59.672868,18.6759165 C60.2503571,18.4471397 60.78921,18.1769815 61.2740584,17.8500044 C62.0898593,17.3010044 62.7649675,16.6052399 63.2654004,15.7869394 C64.241158,14.1921485 64.6843398,12.200268 64.6847727,9.86211336 C64.6840152,8.30377241 64.4928896,6.9216775 64.0795779,5.71464938 C63.6675649,4.50912214 63.0213528,3.47641037 62.1413745,2.68448243 C61.2775216,1.90563357 60.2091234,1.3381942 58.9831494,0.9721942 C57.7560931,0.605550967 56.3686472,0.433378735 54.8188636,0.432949912 L43.3925649,0.432949912 L43.3925649,30.6616125 L48.0164827,30.6616125 L48.0164827,19.6842926 L54.7694048,19.6842926 L54.9236255,19.6842926 L60.4766558,30.6616125 L60.5302273,30.6616125 L60.5302273,30.6997777 L64.0882359,30.6997777 L64.0882359,30.6616125 L65.6973268,30.6616125 Z" id="Fill-9" fill="#D0021B"></path>
            <polygon id="Fill-11" fill="#D0021B" points="90.3382684 30.6616232 80.5569913 15.560103 89.7358874 0.432960633 84.3062338 0.432960633 76.4244156 13.5182647 73.2835065 13.5668288 73.2838312 0.432960633 68.6353463 0.432960633 68.6353463 30.6616232 68.7368615 30.6616232 68.7368615 30.6750239 73.2838312 30.6750239 73.2838312 18.0732172 76.5351299 18.0245459 84.7769048 30.6750239 85.2164069 30.6750239 85.2164069 30.6616232"></polygon>
            <path d="M102.099924,4.54659051 C103.705444,4.54573286 104.949708,4.80324077 105.844946,5.24578559 C106.767024,5.70248155 107.456418,6.33606678 107.987695,7.21601054 C108.529686,8.1186819 108.92763,9.26717575 109.15079,10.6774657 C109.378929,12.1210967 109.497002,13.7982214 109.496245,15.7012285 C109.497002,17.7074745 109.386937,19.4299473 109.173409,20.8577118 C108.966916,22.2483831 108.581851,23.3440246 108.061937,24.1658629 C107.550141,24.971942 106.880227,25.5463497 105.961504,25.9533023 C105.060314,26.3518928 103.768539,26.5874236 102.099924,26.5857083 C100.452413,26.5874236 99.1783874,26.3417083 98.2806602,25.9246784 C97.3593398,25.4954271 96.6889935,24.9024728 96.1822835,24.0802056 C95.6645346,23.2367118 95.2826082,22.1279912 95.07579,20.7347469 C94.8622619,19.3047311 94.752197,17.6240685 94.7528463,15.7012285 C94.752197,13.7796749 94.8657251,12.0926872 95.0872619,10.6475554 C95.3024134,9.23683656 95.6927814,8.0940246 96.2258983,7.20100176 C96.7486255,6.33092091 97.4304437,5.70076626 98.3447294,5.24460633 C99.2275216,4.80463445 100.476115,4.54519684 102.099924,4.54659051 M92.4105303,26.9877293 C93.3552273,28.3547083 94.6613961,29.4015712 96.2471104,30.0835062 C97.8547944,30.7761617 99.8044697,31.0909174 102.099924,31.091775 C104.391483,31.0909174 106.337911,30.7889192 107.948517,30.1275677 C109.543214,29.4726485 110.86237,28.4481916 111.819513,27.095471 C112.771245,25.7546503 113.404578,24.1105448 113.755985,22.1963884 C114.101439,20.3155729 114.268539,18.1539859 114.268864,15.7012285 C114.268539,13.3275888 114.09592,11.1965554 113.743106,9.30137434 C113.384123,7.37467487 112.747976,5.70248155 111.808041,4.31416872 C110.85934,2.90870299 109.5496,1.82356766 107.957175,1.1057188 C106.338669,0.375326889 104.384773,0.0417029877 102.099924,0.0405237258 C99.8138853,0.0417029877 97.8611797,0.379829525 96.247868,1.12072759 C94.6631277,1.84801054 93.3615043,2.94247276 92.4147511,4.35362039 C91.4752489,5.74900879 90.8431061,7.42205975 90.4924567,9.34179086 C90.1477597,11.2272162 89.9807684,13.3450633 89.9804437,15.7012285 C89.9807684,18.089877 90.1477597,20.2153357 90.4932143,22.0871459 C90.8438636,23.9904745 91.4725433,25.635116 92.4105303,26.9877293" id="Fill-13" fill="#D0021B"></path>
            <polygon id="Fill-15" fill="#000000" points="38.6993506 30.6616232 34.0757576 30.6616232 34.0747835 31.725103 34.0747835 60.9032576 38.6987013 60.9032576 38.6987013 49.05382 50.7603896 49.05382 50.7603896 44.5718745 38.6987013 44.5718745 38.6987013 35.119233 53.2117965 35.119233 53.2117965 30.6616232 48.0164502 30.6616232 43.3925325 30.6616232"></polygon>
            <polygon id="Fill-17" fill="#000000" points="60.4766991 30.6616232 55.9063528 30.6616232 55.9063528 31.725103 55.9063528 60.9032576 60.5302706 60.9032576 60.5302706 30.6996812 60.5302706 30.6616232"></polygon>
            <polygon id="Fill-19" fill="#000000" points="68.6353247 30.6616232 65.6973377 30.6616232 64.0882468 30.6616232 64.0882468 30.6996812 64.0882468 60.9032576 65.1617316 60.9032576 81.6896537 60.9032576 81.6896537 56.3971909 68.7368398 56.3971909 68.7368398 30.6750239 68.7368398 30.6616232"></polygon>
            <polygon id="Fill-21" fill="#000000" points="114.260563 60.9032898 114.260563 30.6616554 107.901039 30.6616554 99.7401082 53.0715974 91.602013 30.6616554 90.3382684 30.6616554 85.2164069 30.6616554 85.2164069 31.7251351 85.2164069 60.9032898 89.8403247 60.9032898 89.8403247 39.0176905 97.4735498 59.996223 101.902121 59.996223 109.611861 38.9833847 109.611861 60.9032898"></polygon>
            <polygon id="Fill-23" fill="#000000" points="120.394264 60.9033005 124.937446 60.9033005 124.937446 0 120.394264 0"></polygon>
            <polygon id="Fill-25" fill="#000000" points="0 60.9033005 4.54318182 60.9033005 4.54318182 0 0 0"></polygon>
        </g>
    </g>
</svg>