<?xml version="1.0" encoding="UTF-8" standalone="no"?>
<!DOCTYPE svg PUBLIC "-//W3C//DTD SVG 1.1//EN" "http://www.w3.org/Graphics/SVG/1.1/DTD/svg11.dtd">
<svg width="100%" height="100%" viewBox="0 0 48 48" version="1.1" xmlns="http://www.w3.org/2000/svg" xmlns:xlink="http://www.w3.org/1999/xlink" xml:space="preserve" xmlns:serif="http://www.serif.com/" style="fill-rule:evenodd;clip-rule:evenodd;stroke-linejoin:round;stroke-miterlimit:1.41421;">
    <g id="password" transform="matrix(0.0566405,0,0,0.0566405,11.3125,8.50006)">
        <path d="M400,256L152,256L152,152.9C152,113.3 183.7,80.4 223.3,80C263.3,79.6 296,112.1 296,152L296,168C296,181.3 306.7,192 320,192L352,192C365.3,192 376,181.3 376,168L376,152C376,68 307.5,-0.3 223.5,0C139.5,0.3 72,69.5 72,153.5L72,256L48,256C21.5,256 0,277.5 0,304L0,464C0,490.5 21.5,512 48,512L400,512C426.5,512 448,490.5 448,464L448,304C448,277.5 426.5,256 400,256Z" style="fill:rgb(134,142,150);fill-rule:nonzero;"/>
    </g>
</svg>
