<?xml version="1.0" encoding="UTF-8" standalone="no"?>
<!DOCTYPE svg PUBLIC "-//W3C//DTD SVG 1.1//EN" "http://www.w3.org/Graphics/SVG/1.1/DTD/svg11.dtd">
<svg width="100%" height="100%" viewBox="0 0 248 216" version="1.1" xmlns="http://www.w3.org/2000/svg" xmlns:xlink="http://www.w3.org/1999/xlink" xml:space="preserve" xmlns:serif="http://www.serif.com/" style="fill-rule:evenodd;clip-rule:evenodd;stroke-linejoin:round;stroke-miterlimit:1.41421;">
    <g id="Layer-1" serif:id="Layer 1" transform="matrix(1,0,0,1.00935,1.00019,1.00981)">
        <g transform="matrix(0.990424,0,0,0.990424,144.506,190.907)">
            <path d="M0,-2.3C0.86,-1.43 0.86,-0.04 0,0.81L-17.84,18.66C-18.7,19.52 -20.1,19.52 -20.95,18.66L-38.8,0.81C-39.66,-0.05 -39.66,-1.44 -38.8,-2.3L-36.76,-4.33C-35.89,-5.21 -34.47,-5.19 -33.61,-4.3L-23.07,6.76L-23.07,-19.62C-23.07,-20.84 -22.09,-21.82 -20.87,-21.82L-17.93,-21.82C-16.71,-21.82 -15.73,-20.84 -15.73,-19.62L-15.73,6.76L-5.19,-4.3C-4.34,-5.2 -2.91,-5.22 -2.04,-4.33L0,-2.3Z" style="fill:rgb(208,2,27);fill-rule:nonzero;"/>
        </g>
        <g transform="matrix(0.990424,0,0,0.990424,217.272,54.3178)">
            <path d="M0,15.19C15.31,18.03 25.94,32.09 24.54,47.64C23.14,63.19 10.16,75.11 -5.4,75.15L-51.61,75.15L-51.61,67.09L-5.4,67.09C6.39,66.69 15.79,57.06 15.95,45.22C16.1,33.38 6.95,23.51 -4.83,22.8C-6.03,22.77 -7.15,22.21 -7.89,21.26C-8.63,20.32 -8.91,19.09 -8.66,17.91C-7.84,14.21 -7.42,10.419 -7.41,6.63C-7.4,-18.61 -25.32,-40.26 -50.05,-44.89C-74.77,-49.52 -99.28,-35.8 -108.33,-12.26C-108.85,-10.89 -110.07,-9.92 -111.52,-9.72C-112.96,-9.51 -114.4,-10.11 -115.28,-11.27C-122.08,-20.331 -132.73,-25.64 -144.03,-25.62C-154.89,-25.62 -165.18,-20.73 -172.05,-12.29C-178.92,-3.85 -181.64,7.24 -179.47,17.91C-179.23,19.1 -179.53,20.33 -180.3,21.27C-181.06,22.21 -182.2,22.75 -183.41,22.75L-186.22,22.75C-198.43,22.75 -208.32,32.68 -208.32,44.919C-208.32,57.16 -198.43,67.09 -186.22,67.09L-140.01,67.09L-140.01,75.15L-186.22,75.15C-202.5,75.14 -215.83,62.16 -216.33,45.83C-216.82,29.51 -204.29,15.74 -188.04,14.74C-188.17,13.39 -188.23,12.02 -188.23,10.66C-188.2,-13.82 -168.43,-33.65 -144.03,-33.68C-132.5,-33.72 -121.41,-29.18 -113.19,-21.06C-99.73,-47.31 -69.33,-59.96 -41.3,-50.98C-13.27,-42 4.19,-14.02 0,15.19" style="fill:rgb(53,56,60);fill-rule:nonzero;"/>
        </g>
        <g transform="matrix(0.990424,0,0,0.990424,131.759,113.139)">
            <path d="M0,-3.48L0,-7.24L0,-34.459C0,-36.47 -1.85,-37.24 -2.78,-37.24L-34.38,-37.24C-35.3,-37.24 -37,-36.62 -37,-34.77L-37,-3.629C-37,-1.169 -35.15,-0.24 -33.92,-0.24L-3.24,-0.24C-2.16,-0.24 0,-1.169 0,-3.48M19.73,30.05C19.73,28.89 18.77,27.94 17.61,27.94L-35.68,27.94C-36.84,27.94 -37.79,28.89 -37.79,30.05C-37.79,31.241 -36.84,32.17 -35.68,32.17L17.61,32.17C18.77,32.17 19.73,31.241 19.73,30.05M19.73,20.42C19.73,19.25 18.77,18.3 17.61,18.3L-35.68,18.3C-36.84,18.3 -37.79,19.25 -37.79,20.42C-37.79,21.6 -36.84,22.53 -35.68,22.53L17.61,22.53C18.77,22.53 19.73,21.6 19.73,20.42M19.73,10.78C19.73,9.621 18.77,8.661 17.61,8.661L-35.68,8.661C-36.84,8.661 -37.79,9.621 -37.79,10.78C-37.79,11.97 -36.84,12.9 -35.68,12.9L17.61,12.9C18.77,12.9 19.73,11.97 19.73,10.78M31,-40.24L31,36.76C31,39.52 28.76,41.76 26,41.76L-45,41.76C-47.76,41.76 -50,39.52 -50,36.76L-50,-40.24C-50,-43 -47.76,-45.24 -45,-45.24L26,-45.24C28.76,-45.24 31,-43 31,-40.24" style="fill:rgb(53,56,60);fill-rule:nonzero;"/>
        </g>
        <g transform="matrix(0.990424,0,0,0.990424,117.834,105.968)">
            <path d="M0,-15L11.06,0L-19.94,0L-10.9,-11.25L-6.7,-5.85L0,-15Z" style="fill:rgb(53,56,60);fill-rule:nonzero;"/>
        </g>
        <g transform="matrix(0.990424,0,0,0.990424,104.037,89.1312)">
            <path d="M0,-6C1.73,-6 2.99,-4.58 2.99,-3C2.99,-1.26 1.57,0 0,0C-1.74,0 -3,-1.42 -3,-3C-3.16,-4.58 -1.74,-6 0,-6" style="fill:rgb(53,56,60);fill-rule:nonzero;"/>
        </g>
    </g>
</svg>
